<svg xmlns="http://www.w3.org/2000/svg" xmlns:xlink="http://www.w3.org/1999/xlink" width="250" zoomAndPan="magnify" viewBox="0 0 187.5 74.999997" height="100" preserveAspectRatio="xMidYMid meet" version="1.0"><defs><g/><clipPath id="3851a6ef53"><path d="M 0 0.101562 L 187 0.101562 L 187 74.898438 L 0 74.898438 Z M 0 0.101562 " clip-rule="nonzero"/></clipPath><clipPath id="c57f5fe43a"><path d="M 0 0.101562 L 187 0.101562 L 187 74.898438 L 0 74.898438 Z M 0 0.101562 " clip-rule="nonzero"/></clipPath><clipPath id="04d9f14de1"><path d="M 37.398438 0.101562 L 149.574219 0.101562 C 170.226562 0.101562 186.972656 16.84375 186.972656 37.5 C 186.972656 58.15625 170.226562 74.898438 149.574219 74.898438 L 37.398438 74.898438 C 16.746094 74.898438 0 58.15625 0 37.5 C 0 16.84375 16.746094 0.101562 37.398438 0.101562 Z M 37.398438 0.101562 " clip-rule="nonzero"/></clipPath><clipPath id="835082281f"><path d="M 0 0.101562 L 187 0.101562 L 187 74.898438 L 0 74.898438 Z M 0 0.101562 " clip-rule="nonzero"/></clipPath><clipPath id="3da7ef2b3f"><path d="M 37.398438 0.101562 L 149.574219 0.101562 C 170.226562 0.101562 186.972656 16.84375 186.972656 37.5 C 186.972656 58.15625 170.226562 74.898438 149.574219 74.898438 L 37.398438 74.898438 C 16.746094 74.898438 0 58.15625 0 37.5 C 0 16.84375 16.746094 0.101562 37.398438 0.101562 Z M 37.398438 0.101562 " clip-rule="nonzero"/></clipPath><clipPath id="c05f32bda8"><rect x="0" width="187" y="0" height="75"/></clipPath><clipPath id="68616275d0"><path d="M 118.84375 7.992188 L 177.859375 7.992188 L 177.859375 67.007812 L 118.84375 67.007812 Z M 118.84375 7.992188 " clip-rule="nonzero"/></clipPath><clipPath id="c7e06d9f3a"><path d="M 148.351562 7.992188 C 132.054688 7.992188 118.84375 21.203125 118.84375 37.5 C 118.84375 53.796875 132.054688 67.007812 148.351562 67.007812 C 164.648438 67.007812 177.859375 53.796875 177.859375 37.5 C 177.859375 21.203125 164.648438 7.992188 148.351562 7.992188 Z M 148.351562 7.992188 " clip-rule="nonzero"/></clipPath><clipPath id="1109dbc534"><path d="M 0.84375 0.992188 L 59.859375 0.992188 L 59.859375 60.007812 L 0.84375 60.007812 Z M 0.84375 0.992188 " clip-rule="nonzero"/></clipPath><clipPath id="56a66b7360"><path d="M 30.351562 0.992188 C 14.054688 0.992188 0.84375 14.203125 0.84375 30.5 C 0.84375 46.796875 14.054688 60.007812 30.351562 60.007812 C 46.648438 60.007812 59.859375 46.796875 59.859375 30.5 C 59.859375 14.203125 46.648438 0.992188 30.351562 0.992188 Z M 30.351562 0.992188 " clip-rule="nonzero"/></clipPath><clipPath id="c8e24fe745"><rect x="0" width="60" y="0" height="61"/></clipPath><clipPath id="d191aeb200"><rect x="0" width="187" y="0" height="75"/></clipPath></defs><g clip-path="url(#3851a6ef53)"><g transform="matrix(1, 0, 0, 1, 0, -0.000000000000008674)"><g clip-path="url(#d191aeb200)"><g clip-path="url(#c57f5fe43a)"><g clip-path="url(#04d9f14de1)"><g transform="matrix(1, 0, 0, 1, 0, -0.000000000000008674)"><g clip-path="url(#c05f32bda8)"><g clip-path="url(#835082281f)"><g clip-path="url(#3da7ef2b3f)"><path fill="#00bf63" d="M 0 0.101562 L 187 0.101562 L 187 74.898438 L 0 74.898438 Z M 0 0.101562 " fill-opacity="1" fill-rule="nonzero"/></g></g></g></g></g></g><g clip-path="url(#68616275d0)"><g clip-path="url(#c7e06d9f3a)"><g transform="matrix(1, 0, 0, 1, 118, 7)"><g clip-path="url(#c8e24fe745)"><g clip-path="url(#1109dbc534)"><g clip-path="url(#56a66b7360)"><path fill="#ffffff" d="M 0.84375 0.992188 L 59.859375 0.992188 L 59.859375 60.007812 L 0.84375 60.007812 Z M 0.84375 0.992188 " fill-opacity="1" fill-rule="nonzero"/></g></g></g></g></g></g><g fill="#ffffff" fill-opacity="1"><g transform="translate(19.078308, 52.254355)"><g><path d="M 9.40625 -24.796875 L 9.40625 -15.859375 L 23.59375 -15.859375 L 23.59375 -11.25 L 9.40625 -11.25 L 9.40625 0 L 3.9375 0 L 3.9375 -29.375 L 25.390625 -29.375 L 25.390625 -24.796875 Z M 9.40625 -24.796875 "/></g></g></g><g fill="#ffffff" fill-opacity="1"><g transform="translate(45.809307, 52.254355)"><g><path d="M 9.40625 -24.796875 L 9.40625 -15.859375 L 23.59375 -15.859375 L 23.59375 -11.25 L 9.40625 -11.25 L 9.40625 0 L 3.9375 0 L 3.9375 -29.375 L 25.390625 -29.375 L 25.390625 -24.796875 Z M 9.40625 -24.796875 "/></g></g></g><g fill="#ffffff" fill-opacity="1"><g transform="translate(70.651867, 52.254355)"><g><path d="M 28.03125 -6.671875 L 22.828125 -6.671875 L 22.828125 0 L 17.546875 0 L 17.546875 -6.671875 L 1.421875 -6.671875 L 1.421875 -10.453125 L 15.90625 -29.375 L 21.734375 -29.375 L 8.09375 -11.296875 L 17.703125 -11.296875 L 17.703125 -17.203125 L 22.828125 -17.203125 L 22.828125 -11.296875 L 28.03125 -11.296875 Z M 28.03125 -6.671875 "/></g></g></g><g fill="#ffffff" fill-opacity="1"><g transform="translate(99.145344, 52.254355)"><g><path d="M 1.140625 8.4375 C -1.078125 8.4375 -2.757812 8.003906 -3.90625 7.140625 L -2.390625 3.234375 C -1.609375 3.816406 -0.585938 4.109375 0.671875 4.109375 C 1.648438 4.109375 2.394531 3.804688 2.90625 3.203125 C 3.425781 2.609375 3.6875 1.722656 3.6875 0.546875 L 3.6875 -22.40625 L 8.9375 -22.40625 L 8.9375 0.421875 C 8.9375 2.910156 8.25 4.867188 6.875 6.296875 C 5.507812 7.722656 3.597656 8.4375 1.140625 8.4375 Z M 6.296875 -26.109375 C 5.347656 -26.109375 4.550781 -26.40625 3.90625 -27 C 3.257812 -27.601562 2.9375 -28.351562 2.9375 -29.25 C 2.9375 -30.144531 3.257812 -30.894531 3.90625 -31.5 C 4.550781 -32.101562 5.347656 -32.40625 6.296875 -32.40625 C 7.253906 -32.40625 8.050781 -32.113281 8.6875 -31.53125 C 9.332031 -30.957031 9.65625 -30.238281 9.65625 -29.375 C 9.65625 -28.457031 9.335938 -27.679688 8.703125 -27.046875 C 8.078125 -26.421875 7.273438 -26.109375 6.296875 -26.109375 Z M 6.296875 -26.109375 "/></g></g></g></g></g></g></svg>